<svg xmlns="http://www.w3.org/2000/svg" xml:space="preserve" id="Scientistexperimentingoncoronavirus" x="0" y="0" enable-background="new 0 0 300 300" version="1.1" viewBox="0 0 300 300">
  <path fill="#a86ac5" d="M280.4,230.8c3.2-11.6,0.9-28.3-2.2-34.4c-6.3-12.3-18.7-14.5-29.3-23.3c-20.1-16.7-18-54.2-21.4-66.3    c-11.9-42.1-63.8-36.8-83-9.3c-3.2,4.6-13.5,20.4-32.7,26.3c-21.8,6.6-41.1-2-61.9,9.2c-6.3,3.4-12.9,8.8-17.6,14.1    c-6.7,7.5-11.6,16.5-14.2,26.2c-5.2,19.4-1.2,40.7,9.6,57.5H280.4z" class="color6a89c5 svgShape"></path>
  <circle cx="197.7" cy="90" r="6.8" fill="none" stroke="#100025" stroke-linecap="round" stroke-linejoin="round" stroke-miterlimit="10" stroke-width=".646" class="colorStroke000425 svgStroke"></circle>
  <polyline fill="none" stroke="#000425" stroke-linecap="round" stroke-linejoin="round" stroke-miterlimit="10" stroke-width=".646" points="195.8 96.7 189 125.2 218.1 158.1 206.7 204.2 161 213 132.4 185.7 141.4 140.5 186.3 125.2"></polyline>
  <circle cx="189" cy="130.3" r="11.1" fill="#d29943" class="colord2434a svgShape"></circle>
  <circle cx="200.1" cy="119.3" r="2.6" fill="#fccb81" class="colorfce381 svgShape"></circle>
  <circle cx="218.1" cy="159.8" r="6.7" fill="#fccb81" class="colorfce381 svgShape"></circle>
  <circle cx="230.4" cy="158.9" r="2.6" fill="#d29943" class="colord2434a svgShape"></circle>
  <circle cx="206.7" cy="204.3" r="3.6" fill="#5fe4d4" class="color99daf3 svgShape"></circle>
  <circle cx="161.6" cy="213" r="9.8" fill="#d29943" class="colord2434a svgShape"></circle>
  <circle cx="141.5" cy="141.4" r="4.4" fill="#efe0c9" class="colorefdec9 svgShape"></circle>
  <circle cx="132.9" cy="186.2" r="6.7" fill="#5fe4d4" class="color99daf3 svgShape"></circle>
  <path fill="#f29e20" d="M71.8,157.5H51.1c-1.4,0-2.7,0.8-3.4,2l-10.4,18c-0.7,1.2-0.7,2.7,0,4l10.4,18c0.7,1.2,2,2,3.4,2h20.8    c1.4,0,2.7-0.8,3.4-2l10.4-18c0.7-1.2,0.7-2.7,0-4l-10.4-18C74.5,158.2,73.2,157.5,71.8,157.5z" class="colorf28e20 svgShape"></path>
  <path fill="none" stroke="#ffffff" stroke-miterlimit="10" stroke-width=".323" d="M49,187.5H37.5c-1.4,0-2.7,0.8-3.4,2l-5.7,9.9c-0.7,1.2-0.7,2.7,0,4l5.7,9.9c0.7,1.2,2,2,3.4,2H49    c1.4,0,2.7-0.8,3.4-2l5.7-9.9c0.7-1.2,0.7-2.7,0-4l-5.7-9.9C51.7,188.2,50.4,187.5,49,187.5z" class="colorStrokeffffff svgStroke"></path>
  <g opacity=".7" fill="#000000" class="color000000 svgShape">
    <line x1="32.4" x2="52.8" y1="175.6" y2="175.6" fill="none" stroke="#ffffff" stroke-linecap="round" stroke-linejoin="round" stroke-miterlimit="10" stroke-width=".646" class="colorStrokeffffff svgStroke"></line>
    <line x1="41.1" x2="46.5" y1="179.2" y2="179.2" fill="none" stroke="#ffffff" stroke-linecap="round" stroke-linejoin="round" stroke-miterlimit="10" stroke-width=".646" class="colorStrokeffffff svgStroke"></line>
    <line x1="23.8" x2="37.4" y1="179.2" y2="179.2" fill="none" stroke="#ffffff" stroke-linecap="round" stroke-linejoin="round" stroke-miterlimit="10" stroke-width=".646" class="colorStrokeffffff svgStroke"></line>
  </g>
  <g fill="#000000" class="color000000 svgShape">
    <path fill="#776243" d="M109.2,80.6c0,0,1.1-4.4,0.7-6.1c-0.4-1.7-0.4-1.7-0.4-1.7s1-2.2-0.4-3.2c-1.4-0.9-3-0.3-3-0.3             s-3.8-4.4-10-2.5c-6.2,1.9-3.2,6.5-2.6,6.7c0.6,0.2,0.6,0.2,0.6,0.2s-0.4,2.2-0.2,3.6c0.2,1.4,0.6,3.4,0.6,3.4H109.2z" class="color77434e svgShape"></path>
    <rect width="6" height="12" x="99" y="80.9" fill="#f8d39c" class="colorf8ad9c svgShape"></rect>
    <path fill="#f8d39c" d="M96.1,81.3c0,0-1.1-0.2-2.1-1.1s-0.8-2.4,0.3-2.7s1.9,0.7,1.9,0.7l0.5-5.2c0.1-0.7,0.7-1.3,1.5-1.3            l7.9,0.2c0.8,0,1.4,0.7,1.4,1.4l0,5c0,0,1.8-1.7,2.6-0.3c1.2,2.3-2.6,3.5-2.6,3.5s-2.1,4.5-5.4,4.4            C98.4,86.1,96.1,81.3,96.1,81.3z" class="colorf8ad9c svgShape"></path>
    <ellipse cx="98.9" cy="75.6" fill="#4d3a1e" rx="1.9" ry=".3" transform="rotate(-.992 98.906 75.627)scale(.99995)" class="color4d1e33 svgShape"></ellipse>
    <ellipse cx="105.1" cy="75.8" fill="#4d3a1e" rx=".3" ry="1.8" transform="rotate(-87.587 105.099 75.786)" class="color4d1e33 svgShape"></ellipse>
    <path fill="#d0b284" d="M101.7 86.1c-.9 0-1.9-.3-2.7-.9-.1-.1-.1-.2 0-.3l0 0c.1-.1.2-.1.3 0 1.6 1.1 3.8 1.1 5.4 0 .1-.1.2 0 .3.1s0 .2-.1.3C103.9 85.9 102.8 86.2 101.7 86.1zM95.6 79.3c-.2-.7-1-.8-1.1-.8 0 0-.1 0-.1 0s0 .1 0 .1C94.5 78.6 95.3 78.7 95.6 79.3c-.1.1-.1.2 0 .3-.2.1-.6.3-.8.2-.2-.1-.2-.3-.2-.3 0 0 0 0 0-.1 0 0 0 0-.1 0 0 0 0 .3.3.4.1 0 .1 0 .2 0 .3 0 .6-.1.7-.2.1.5-.1.9-.1.9 0 0 0 .1 0 .1 0 0 0 0 0 0 0 0 0 0 0 0C95.6 80.5 95.8 79.9 95.6 79.3zM108.4 79.3c.2-.7 1-.8 1.1-.8 0 0 .1 0 .1 0s0 .1 0 .1C109.5 78.6 108.6 78.7 108.4 79.3c.1.1.1.2 0 .3.2.1.6.3.8.2.2-.1.2-.3.2-.3 0 0 0 0 0-.1 0 0 0 0 .1 0 0 0 0 .3-.3.4-.1 0-.1 0-.2 0-.3 0-.6-.1-.7-.2-.1.5.1.9.1.9 0 0 0 .1 0 .1 0 0 0 0 0 0 0 0 0 0 0 0C108.4 80.5 108.2 79.9 108.4 79.3zM102.7 79.8l-.3.1c-.2.1-.5.1-.7 0l-.4-.1c-.1 0-.2.1-.1.2l.2.2c.4.4.9.3 1.3 0l.1-.1C102.9 79.9 102.8 79.8 102.7 79.8z" class="colord08487 svgShape"></path>
    <path fill="#776243" d="M108.1,70.3c1.7,0,3,1.7,2.5,3.3c0,0,0,0,0,0c0,0.1-0.1,0.2-0.2,0.2c-0.6,0.3-0.9,0.8-1,1.4l0,1.5            c0,0-1.8-0.5-1.9-1.5c-0.1-1-0.1-1-0.1-1s-3.1,0.4-5.3-0.4c-2.2-0.8-3.3-1.8-3.3-1.8c-0.3,0.8-1.1,1.3-2,1.4l-0.2,0L96,76            l-0.7,0c0,0-0.1-0.8-0.3-1.8c-0.3-2.2,1.4-4.2,3.7-4.1L108.1,70.3z" class="color77434e svgShape"></path>
    <circle cx="105.1" cy="78.7" r="0" fill="#ad59d4" class="colorcf7492 svgShape"></circle>
    <circle cx="104.7" cy="78.9" r="0" fill="#ad59d4" class="colorcf7492 svgShape"></circle>
    <circle cx="105" cy="79.1" r="0" fill="#ad59d4" class="colorcf7492 svgShape"></circle>
    <circle cx="105.7" cy="79" r="0" fill="#ad59d4" class="colorcf7492 svgShape"></circle>
    <circle cx="105.5" cy="79.5" r="0" fill="#ad59d4" class="colorcf7492 svgShape"></circle>
    <circle cx="105.1" cy="80" r="0" fill="#ad59d4" class="colorcf7492 svgShape"></circle>
    <circle cx="104.7" cy="79.5" r="0" fill="#ad59d4" class="colorcf7492 svgShape"></circle>
    <g fill="#000000" class="color000000 svgShape">
      <circle cx="98.2" cy="78.7" r="0" fill="#ad59d4" class="colorcf7492 svgShape"></circle>
      <circle cx="98.7" cy="78.9" r="0" fill="#ad59d4" class="colorcf7492 svgShape"></circle>
      <circle cx="98.4" cy="79.1" r="0" fill="#ad59d4" class="colorcf7492 svgShape"></circle>
      <circle cx="97.7" cy="79" r="0" fill="#ad59d4" class="colorcf7492 svgShape"></circle>
      <circle cx="97.9" cy="79.5" r="0" fill="#ad59d4" class="colorcf7492 svgShape"></circle>
      <circle cx="98.2" cy="80" r="0" fill="#ad59d4" class="colorcf7492 svgShape"></circle>
      <circle cx="98.7" cy="79.5" r="0" fill="#ad59d4" class="colorcf7492 svgShape"></circle>
    </g>
    <g fill="#000000" class="color000000 svgShape">
      <path fill="#ffffff" d="M97.9,77.8c0,0,0.3,0.4,1.1,0.4c0.8,0,0.8-0.3,1.1-0.3c0.2,0-0.1-0.4-0.5-0.6        C98.3,77.1,97.9,77.8,97.9,77.8z" class="colorffffff svgShape"></path>
      <path fill="#2a1d30" d="M100.1,77.8L100.1,77.8c0.1,0,0.2-0.1,0.1-0.2c-0.2-0.2-0.5-0.3-1.1-0.4c-1-0.1-1.4,0.5-1.4,0.5l0.1,0        c0,0,0.4-0.4,1-0.5S100.1,77.8,100.1,77.8z" class="color2b1d30 svgShape"></path>
      <path fill="#2a1d30" d="M98.4,77.7c0,0.3,0.3,0.5,0.6,0.5c0.4,0,0.6-0.2,0.6-0.5c0-0.3-0.3-0.4-0.6-0.4        C98.7,77.3,98.4,77.4,98.4,77.7z" class="color2b1d30 svgShape"></path>
      <circle cx="99.3" cy="77.7" r=".1" fill="#ffffff" transform="rotate(-88.744 99.294 77.732)scale(1.00004)" class="colorffffff svgShape"></circle>
    </g>
    <g fill="#000000" class="color000000 svgShape">
      <path fill="#ffffff" d="M105.8,77.8c0,0-0.3,0.4-1.1,0.4c-0.8,0-0.8-0.3-1.1-0.3c-0.2,0,0.1-0.4,0.5-0.6        C105.3,77.1,105.8,77.8,105.8,77.8z" class="colorffffff svgShape"></path>
      <path fill="#2a1d30" d="M103.6,77.8L103.6,77.8c-0.1,0-0.2-0.1-0.1-0.2c0.2-0.2,0.5-0.3,1.1-0.4c1-0.1,1.4,0.5,1.4,0.5l-0.1,0        c0,0-0.4-0.4-1-0.5S103.6,77.8,103.6,77.8z" class="color2b1d30 svgShape"></path>
      <path fill="#2a1d30" d="M105.3,77.7c0,0.3-0.3,0.5-0.6,0.5c-0.4,0-0.6-0.2-0.6-0.5c0-0.3,0.3-0.4,0.6-0.4        C105,77.3,105.3,77.4,105.3,77.7z" class="color2b1d30 svgShape"></path>
      <circle cx="104.4" cy="77.7" r=".1" fill="#ffffff" transform="rotate(-1.255 104.4 77.734)scale(1.00004)" class="colorffffff svgShape"></circle>
    </g>
    <g fill="#000000" class="color000000 svgShape">
      <path fill="#23211f" d="M100.8,82.4c0,0-0.1,0-0.1-0.1c0-0.1,0-0.1,0-0.2l0.3-0.2c0.5-0.3,1.2-0.2,1.7,0.2c0,0,0,0.1,0,0.2        c0,0-0.1,0-0.2,0c-0.4-0.4-0.9-0.4-1.4-0.2L100.8,82.4C100.8,82.4,100.8,82.4,100.8,82.4z" class="color231f20 svgShape"></path>
    </g>
    <g fill="#000000" class="color000000 svgShape">
      <path fill="#8526fe" d="M108.2,74H95.8c-0.4,0-0.6,0.4-0.6,0.9v4.3c0,0.5,0.3,0.9,0.6,0.9h5c0.4,0,0.6-0.4,0.6-0.9l0-0.2        c0-0.4,0.2-0.7,0.5-0.7l0.4,0c0.3,0,0.5,0.3,0.5,0.7l0,0.2c0,0.5,0.3,0.9,0.6,0.9h4.8c0.4,0,0.6-0.4,0.6-0.9v-4.3        C108.8,74.4,108.5,74,108.2,74z M108.2,78.7c0,0.4-0.2,0.7-0.5,0.7h-3.8c-0.3,0-0.5-0.3-0.5-0.7c0-0.4-0.2-0.7-0.5-0.7h-1.7        c-0.3,0-0.5,0.3-0.5,0.7c0,0.4-0.2,0.7-0.5,0.7h-3.8c-0.3,0-0.5-0.3-0.5-0.7v-3.3c0-0.4,0.2-0.7,0.5-0.7h5.7h0.1h5.5        c0.3,0,0.5,0.3,0.5,0.7V78.7z" class="color35489d svgShape"></path>
      <path fill="#ffffff" d="M107.7,74.7h-5.5h-0.1h-5.7c-0.3,0-0.5,0.3-0.5,0.7v3.3c0,0.4,0.2,0.7,0.5,0.7h3.8        c0.3,0,0.5-0.3,0.5-0.7c0-0.4,0.2-0.7,0.5-0.7h1.7c0.3,0,0.5,0.3,0.5,0.7c0,0.4,0.2,0.7,0.5,0.7h3.8c0.3,0,0.5-0.3,0.5-0.7        v-3.3C108.2,75,107.9,74.7,107.7,74.7z" opacity=".41" class="colorffffff svgShape"></path>
      <polygon fill="#ffffff" points="105.9 74.7 106.8 74.7 104.5 79.4 103.6 79.4" opacity=".41" class="colorffffff svgShape"></polygon>
      <polygon fill="#ffffff" points="99.6 74.7 101.5 74.7 99.4 79.4 97.7 79.4" opacity=".41" class="colorffffff svgShape"></polygon>
      <polygon fill="#ffffff" points="98.3 74.7 98.7 74.7 97 79.4 96.6 79.4" opacity=".41" class="colorffffff svgShape"></polygon>
    </g>
    <polygon fill="#f8d39c" points="102.5 87 105.9 88.7 108.2 89.9 101.8 99.9 95.8 89.9 98.3 88.7" class="colorf8ad9c svgShape"></polygon>
    <g fill="#000000" class="color000000 svgShape">
      <path fill="#21bdaa" d="m66.7 173.3-3.1-3.5c-.1-.1-.2-.5-.2-.5-.4-1.1-.7-4.5-.6-5.7 0-.1-.1-4.3-.1-6.3 0-.1 1-1.9 1-1.9l6.3 1.1c0 0-1.1 2.1-1.2 2.2.5 2.4.2 4.9-.9 7.1 0 0 2.2.3 2.2 1.2 0 .6-3 .2-3 .2s3.1.9 3.5 1.3c.4.3.2 1.3-.4 1.2-.7 0-4.2-.7-4.2-.7s3.5 1.4 4.1 1.9c.2.2-.1.9-.9.8-.2 0-1.3-.4-2.4-.8l1.2 1.4c.3.3.2.9-.2 1.1C67.3 173.6 66.9 173.5 66.7 173.3zM119.6 65.1l3.7-1.2c.1 0 .5 0 .5 0 1 0 3.7.9 4.6 1.4.1 0 4.5 1 6 2.2 1.8 1.5 3.2 5 3.2 5l-6.1.6c0 0-1.3-1.5-1.3-1.7-2-.4-3.8-1.4-5.2-3 0 0-1 1.6-1.7 1.3-.5-.2.8-2.4.8-2.4s-1.7 2.1-2.1 2.3c-.4.2-1-.2-.8-.7.2-.5 1.9-2.9 1.9-2.9s-2.3 2.3-2.8 2.5c-.2.1-.7-.3-.3-1 .1-.2.7-.9 1.4-1.6l-1.5.5c-.4.1-.8-.1-.8-.5C119 65.5 119.3 65.2 119.6 65.1z" class="color2178bd svgShape"></path>
      <path fill="#f29e20" d="M130.6,65.2c0.3,1.4,0.1,2.8-0.7,4.1c-0.3,0.6-0.9,0.9-1.6,0.9h-6c-0.7,0-1.3-0.3-1.6-0.9         c-0.7-1.3-0.9-2.7-0.7-4.1H130.6z" class="colorf28e20 svgShape"></path>
      <path fill="#d8a353" d="M120.6,69.3c-1.6-2.9-0.6-6.6,2.2-8.3l0,0l0.6-0.4c0.1-0.1,0.2-0.2,0.2-0.4v-4.4c0-0.1,0-0.1,0.1-0.1          h3.1c0.1,0,0.1,0,0.1,0.1v4.4c0,0.1,0.1,0.3,0.2,0.4l0.6,0.4c2.9,1.7,3.8,5.4,2.2,8.3c-0.3,0.6-1,1-1.7,1h-6          C121.6,70.3,121,69.9,120.6,69.3z M123.9,56v4.3c0,0.2-0.1,0.4-0.3,0.5l-0.6,0.4c-2.8,1.6-3.7,5.2-2.1,8          c0.3,0.5,0.9,0.9,1.5,0.9h6c0.6,0,1.2-0.3,1.5-0.9c1.6-2.8,0.6-6.4-2.1-8l-0.6-0.4c-0.2-0.1-0.3-0.3-0.3-0.5V56H123.9z" class="colorcc8067 svgShape"></path>
      <path fill="#d8a353" d="M122.9 55.5c0-.3.3-.6.6-.6h3.8c.3 0 .6.3.6.6 0 .3-.3.6-.6.6h-3.8C123.1 56 122.9 55.8 122.9 55.5zM123.4 55.1c-.2 0-.4.2-.4.4s.2.4.4.4h3.8c.2 0 .4-.2.4-.4s-.2-.4-.4-.4H123.4zM123.8 57h1.5c.1 0 .1 0 .1-.1s0-.1-.1-.1h-1.5C123.8 56.8 123.7 56.8 123.8 57 123.7 56.9 123.8 57 123.8 57zM123.8 59.2h1.5c.1 0 .1 0 .1-.1s0-.1-.1-.1h-1.5C123.8 59 123.7 59 123.8 59.2 123.7 59.2 123.8 59.2 123.8 59.2zM122.4 61.6h2.2c.1 0 .1 0 .1-.1s0-.1-.1-.1h-2.2C122.3 61.4 122.3 61.4 122.4 61.6 122.3 61.5 122.3 61.6 122.4 61.6zM120.6 63.8h2.8c.1 0 .1 0 .1-.1s0-.1-.1-.1h-2.8C120.5 63.6 120.5 63.7 120.6 63.8 120.5 63.8 120.5 63.8 120.6 63.8zM120 66.4h3.3c.1 0 .1 0 .1-.1s0-.1-.1-.1H120C120 66.3 119.9 66.3 120 66.4 119.9 66.4 120 66.4 120 66.4zM120.6 69h2.8c.1 0 .1 0 .1-.1 0-.1 0-.1-.1-.1h-2.8C120.5 68.8 120.5 68.8 120.6 69 120.5 68.9 120.5 69 120.6 69z" class="colorcc8067 svgShape"></path>
      <g fill="#000000" class="color000000 svgShape">
        <path fill="#d8a353" d="M128.9,69.4c0.1,0,0.1,0,0.2-0.1c1.5-2.7,0.6-6.1-2-7.6c-0.1-0.1-0.2,0-0.3,0.1c-0.1,0.1,0,0.2,0.1,0.3         c2.5,1.5,3.3,4.7,1.9,7.1C128.7,69.2,128.7,69.3,128.9,69.4C128.8,69.4,128.9,69.4,128.9,69.4z" class="colorcc8067 svgShape"></path>
      </g>
      <g fill="#000000" class="color000000 svgShape">
        <polygon fill="#d8a353" points="108.7 214.7 110 228 115.4 228 116.5 214.6" class="colorcc8067 svgShape"></polygon>
        <path fill="#23211f" d="M109.5,226.8l0,2.9l15.8-0.1l-0.2-0.6c-0.4-1-1.4-1.8-2.9-2.2l-6.6-1.6h0c-1.7,0.8-3.8,0.9-5.6,0.2           l0,0c-0.2-0.1-0.5,0.1-0.5,0.4L109.5,226.8z" class="color231f20 svgShape"></path>
        <polygon fill="#ffffff" points="109.5 230.8 109.5 229.7 125.3 229.6 125.3 230.8" class="colorffffff svgShape"></polygon>
        <g fill="#000000" class="color000000 svgShape">
          <polygon fill="#d8a353" points="77.6 214.9 78.8 228.2 84.2 228.2 85.3 214.8" class="colorcc8067 svgShape"></polygon>
          <path fill="#23211f" d="M78.3,227l0,2.9l15.8-0.1l-0.2-0.6c-0.4-1-1.4-1.8-2.9-2.2l-6.6-1.6l0,0c-1.7,0.8-3.8,0.9-5.6,0.2            l0,0c-0.2-0.1-0.5,0.1-0.5,0.4L78.3,227z" class="color231f20 svgShape"></path>
          <polygon fill="#ffffff" points="78.3 230.8 78.3 229.9 94.1 229.8 94.1 230.8" class="colorffffff svgShape"></polygon>
        </g>
        <path fill="#3b104f" d="M102,158.1l2.6,62h13.9l1.9-70.4c0.2-6.1-0.7-12.3-2.7-18.1l0,0H89h0c-3.5,7.4-5.8,15.3-6.9,23.4       l-9,65.1H89L102,158.1z" class="color102d4f svgShape"></path>
        <polyline fill="none" stroke="#000425" stroke-linecap="round" stroke-linejoin="round" stroke-miterlimit="10" stroke-width=".646" points="102 158.1 103.1 147.9 106.8 144.3"></polyline>
      </g>
      <g fill="#000000" class="color000000 svgShape">
        <path fill="#9252b0" d="M105.9,88.7C105.9,88.7,105.8,88.7,105.9,88.7c-1.9,2.5-5.6,2.5-7.5,0c0,0,0,0,0,0l-2.1,0.6l-2.4,0.8       v47.7l18-0.3V90.6L105.9,88.7z" class="color5269b0 svgShape"></path>
      </g>
      <path fill="#e2eae9" d="M125.4,175l-0.8-10.2c-1.8-21.5-2.1-43-1-64.5v0l12.7-5.8c2.7-1.2,4.3-4,3.9-7l-1.9-15.8h-10V84      l-19.4,5.7l0,0c-2.8,25.3-3.1,50.8-0.8,76.1l0.8,9.2H125.4z" class="colore2eaea svgShape"></path>
      <path fill="#fccb81" d="M103.3,93.3c0.4-0.1,0.6-0.4,0.6-0.8v-1.1c0-0.4-0.4-0.8-0.8-0.8h-2.5c-0.4,0-0.8,0.4-0.8,0.8v1.1      c0,0.4,0.3,0.7,0.6,0.8l-1.3,27.2l2.8,3.9l2.8-3.9L103.3,93.3z" class="colorfce381 svgShape"></path>
      <path fill="#e2eae9" d="M78.4,121.3V175h15.4l0.9-7.8c2.9-25.6,2.6-51.5-0.9-77.1l0,0L79.8,94c-4.5,1.2-8,4.8-9.2,9.2l-13.7,54.9      h14.4L78.4,121.3z" class="colore2eaea svgShape"></path>
    </g>
  </g>
  <g opacity=".7" fill="#000000" class="color000000 svgShape">
    <line x1="231.6" x2="252" y1="195" y2="195" fill="none" stroke="#ffffff" stroke-linecap="round" stroke-linejoin="round" stroke-miterlimit="10" stroke-width=".646" class="colorStrokeffffff svgStroke"></line>
    <line x1="240.3" x2="245.7" y1="198.5" y2="198.5" fill="none" stroke="#ffffff" stroke-linecap="round" stroke-linejoin="round" stroke-miterlimit="10" stroke-width=".646" class="colorStrokeffffff svgStroke"></line>
    <line x1="223" x2="236.6" y1="198.6" y2="198.6" fill="none" stroke="#ffffff" stroke-linecap="round" stroke-linejoin="round" stroke-miterlimit="10" stroke-width=".646" class="colorStrokeffffff svgStroke"></line>
  </g>
  <line x1="284.3" x2="22.8" y1="230.8" y2="230.8" fill="none" stroke="#100025" stroke-linecap="round" stroke-linejoin="round" stroke-miterlimit="10" stroke-width=".646" class="colorStroke000425 svgStroke"></line>
</svg>
